<svg version="1.1" xmlns="http://www.w3.org/2000/svg" viewBox="-200.561189113419 -761.9321734457436 562.0866314765085 1582.0863622655793" fill="none" stroke="black" stroke-width="0.6%" vector-effect="non-scaling-stroke">
    <path d="M 266.05356 -725.57101 A 765 123.49914 99.17038 0 1 282.64978 -729.25696 A 765 123.49914 99.17038 0 1 38.81226 781.18776 A 765 123.49914 99.17038 0 1 24.21895 772.46675" />
    <path d="M 26.11811 777.43 A 765 123.49914 279.17038 0 0 33.94091 780.40136 L 38.81226 781.18776" />
    <path d="M 277.77843 -730.04337 A 765 123.49914 279.17038 0 0 269.41803 -729.68454" />
    <path d="M 160.73102 527.35235 A 700 113.00575 99.17038 0 1 49.17137 717.01854 A 700 113.00575 99.17038 0 1 2.97942 509.55792" />
    <path d="M 163.16398 -482.70087 A 700 113.00575 99.17038 0 1 272.29067 -665.08774 A 700 113.00575 99.17038 0 1 160.73102 527.35235" />
    <path d="M 155.85967 526.56595 A 700 113.00575 279.17038 0 0 269.82841 -665.31623" />
    <path d="M 46.76229 716.46062 A 700 113.00575 279.17038 0 0 155.85967 526.56595" />
    <path d="M 155.85967 -529.92799 A 775 125.1135 279.17038 0 0 13.80617 776.70572 L 33.58053 804.88053 A 800 129.14942 99.17038 0 1 180.21641 -543.90265 A 800 129.14942 99.17038 0 1 285.13917 -753.39244 A 800 129.14942 99.17038 1 1 33.58053 804.88053" />
    <path d="M 257.5036 -732.87122 A 775 125.1135 279.17038 0 0 155.85967 -529.92799" />
    <path d="M 180.21641 -536.73998 A 790 127.53506 99.17038 0 1 283.82763 -743.61114 A 790 127.53506 99.17038 1 1 35.41348 795.18341 A 790 127.53506 99.17038 0 1 180.21641 -536.73998 Z" />
    <path d="M 160.73102 -428.45512 A 634.42888 102.42015 279.17038 0 0 49.73242 647.26196 A 634.42888 102.42015 279.17038 1 0 250.87306 -598.69813 A 750.0000000000002 750.0000000000002 0 0 0 197.70971 -573.00018" />
    <path d="M 250.87306 -598.69813 A 634.42888 102.42015 279.17038 0 0 160.73102 -428.45512" />
    <path d="M 160.73102 -419.96479 A 622.5753 100.50655 279.17038 0 0 51.63186 635.49594 A 622.5753 100.50655 279.17038 1 0 248.97362 -586.93211 A 622.5753 100.50655 279.17038 0 0 160.73102 -419.96479 Z" />
    <path d="M 277.77843 -730.04337 L 282.64978 -729.25696" />
    <path d="M 257.5036 -732.87122 L 285.13917 -753.39244" />
    <path d="M 164.00956 -553.90732 A 750.0000000000002 750.0000000000002 0 0 0 -18.62434 577.41328" />
    <path d="M 7.35599 606.14062 A 750.0000000000002 750.0000000000002 0 0 0 49.73242 647.26196" />
</svg>